<?xml version="1.0" encoding="UTF-8"?> <svg xmlns="http://www.w3.org/2000/svg" id="Layer_1" data-name="Layer 1" viewBox="0 0 120 135"><defs><style>.cls-1{fill:#cf257f;}.cls-2{fill:#fff;}</style></defs><title>01_INSTANA_IconSet</title><path class="cls-1" d="M52,4.64,9.56,29.15A16,16,0,0,0,1.57,43V92a16,16,0,0,0,8,13.84L52,130.36a16,16,0,0,0,16,0l42.45-24.51a16,16,0,0,0,8-13.84V43a16,16,0,0,0-8-13.84L68,4.64A16,16,0,0,0,52,4.64Z"></path><path class="cls-2" d="M59.58,99.46A32,32,0,0,1,37,90.1a32,32,0,0,1,10.15-52,31.54,31.54,0,0,1,12.44-2.52,31.83,31.83,0,0,1,19.47,6.61,2,2,0,0,1-2.47,3.21,27.64,27.64,0,0,0-17-5.76,27.9,27.9,0,1,0,17,50.07A2,2,0,1,1,79,92.88a31.89,31.89,0,0,1-9,4.83A31.55,31.55,0,0,1,59.58,99.46Z"></path><circle class="cls-2" cx="59.63" cy="67.5" r="6.89"></circle><circle class="cls-2" cx="72.66" cy="67.5" r="2.61"></circle><circle class="cls-2" cx="81.08" cy="62.71" r="2.61"></circle><circle class="cls-2" cx="81.08" cy="72.91" r="2.61"></circle><circle class="cls-2" cx="89.78" cy="62.55" r="2.61"></circle><circle class="cls-2" cx="85.53" cy="52.85" r="2.61"></circle><circle class="cls-2" cx="85.53" cy="82.4" r="2.61"></circle><circle class="cls-2" cx="89.78" cy="73.09" r="2.61"></circle></svg> 